<?xml version="1.0" ?><svg style="enable-background:new 0 0 64 64;" version="1.1" viewBox="0 0 64 64" xml:space="preserve" xmlns="http://www.w3.org/2000/svg" xmlns:xlink="http://www.w3.org/1999/xlink"><style type="text/css">
	.st0{fill:none;stroke:#000000;stroke-width:2;stroke-linecap:round;stroke-linejoin:round;stroke-miterlimit:10;}
	.st1{fill:none;stroke:#000000;stroke-width:2;stroke-miterlimit:10;}
</style><g id="Layer_1"/><g id="Layer_2"><line class="st0" x1="52.2" x2="44.4" y1="26.4" y2="26.4"/><path class="st0" d="M37.6,23.8V10.4c0-3.1-2.5-5.6-5.6-5.6s-5.6,2.5-5.6,5.6v16.1H10.4c-3.1,0-5.6,2.5-5.6,5.6   c0,3.1,2.5,5.6,5.6,5.6h16.1v16.1c0,3.1,2.5,5.6,5.6,5.6s5.6-2.5,5.6-5.6V37.6h16.1c3.1,0,5.6-2.5,5.6-5.6c0-2-1.1-3.8-2.6-4.7"/><line class="st0" x1="32" x2="32" y1="12.8" y2="21.3"/><line class="st0" x1="32" x2="32" y1="48.8" y2="51.1"/><line class="st0" x1="18.3" x2="13.3" y1="32" y2="32"/><line class="st0" x1="24.8" x2="23.1" y1="32" y2="32"/></g></svg>